<?xml version="1.0" encoding="UTF-8" standalone="no"?>
<svg
   height="800"
   width="700"
   version="1.1"
   id="Layer_1"
   viewBox="0 0 448 512"
   xml:space="preserve"
   xmlns="http://www.w3.org/2000/svg"
   xmlns:svg="http://www.w3.org/2000/svg"><defs
   id="defs7" />






<g
   id="layer1"
   transform="translate(-32)"><g
     id="g15"><path
       style="fill:#e2e5e7"
       d="M 128,0 C 110.4,0 96,14.4 96,32 v 448 c 0,17.6 14.4,32 32,32 h 320 c 17.6,0 32,-14.4 32,-32 V 128 L 352,0 Z"
       id="path1" /><path
       style="fill:#b0b7bd"
       d="m 384,128 h 96 L 352,0 v 96 c 0,17.6 14.4,32 32,32 z"
       id="path2" /><polygon
       style="fill:#cad1d8"
       points="480,128 480,224 384,128 "
       id="polygon2" /><path
       style="fill:#f4af3d;fill-opacity:1"
       d="m 416,416 c 0,8.8 -7.2,16 -16,16 H 48 c -8.8,0 -16,-7.2 -16,-16 V 256 c 0,-8.8 7.2,-16 16,-16 h 352 c 8.8,0 16,7.2 16,16 z"
       id="path3" /><path
       style="fill:#cad1d8"
       d="M 400,432 H 96 v 16 h 304 c 8.8,0 16,-7.2 16,-16 v -16 c 0,8.8 -7.2,16 -16,16 z"
       id="path7" /><text
       xml:space="preserve"
       style="font-style:normal;font-variant:normal;font-weight:bold;font-stretch:normal;font-size:143.932px;font-family:'DejaVu Sans';-inkscape-font-specification:'DejaVu Sans, Bold';font-variant-ligatures:normal;font-variant-caps:normal;font-variant-numeric:normal;font-variant-east-asian:normal;display:inline;opacity:0.989116;fill:#ffffff;fill-opacity:1;stroke:none;stroke-width:2.32603;stroke-dasharray:none;stroke-opacity:1"
       x="142.16634"
       y="462.7872"
       id="text13"
       transform="scale(1.2100592,0.82640585)"><tspan
         id="tspan13"
         x="142.16634"
         y="462.7872"
         style="font-style:normal;font-variant:normal;font-weight:bold;font-stretch:normal;font-size:143.932px;font-family:'DejaVu Sans';-inkscape-font-specification:'DejaVu Sans, Bold';font-variant-ligatures:normal;font-variant-caps:normal;font-variant-numeric:normal;font-variant-east-asian:normal;fill:#ffffff;fill-opacity:1;stroke:none;stroke-width:2.32603">S</tspan></text><text
       xml:space="preserve"
       style="font-style:normal;font-variant:normal;font-weight:bold;font-stretch:normal;font-size:121.412px;font-family:'DejaVu Sans';-inkscape-font-specification:'DejaVu Sans, Bold';font-variant-ligatures:normal;font-variant-caps:normal;font-variant-numeric:normal;font-variant-east-asian:normal;opacity:1;fill:#ffffff;fill-opacity:1;stroke:none;stroke-width:1.96198;stroke-dasharray:none;stroke-opacity:1"
       x="284.70261"
       y="387.59058"
       id="text14"
       transform="scale(1.0134676,0.98671137)"><tspan
         id="tspan14"
         x="284.70261"
         y="387.59058"
         style="font-style:normal;font-variant:normal;font-weight:bold;font-stretch:normal;font-size:121.412px;font-family:'DejaVu Sans';-inkscape-font-specification:'DejaVu Sans, Bold';font-variant-ligatures:normal;font-variant-caps:normal;font-variant-numeric:normal;font-variant-east-asian:normal;fill:#ffffff;fill-opacity:1;stroke:none;stroke-width:1.96198;stroke-dasharray:none">D</tspan></text><text
       xml:space="preserve"
       style="font-style:normal;font-variant:normal;font-weight:bold;font-stretch:normal;font-size:152.876px;font-family:'DejaVu Sans';-inkscape-font-specification:'DejaVu Sans, Bold';font-variant-ligatures:normal;font-variant-caps:normal;font-variant-numeric:normal;font-variant-east-asian:normal;opacity:1;fill:#ffffff;fill-opacity:1;stroke:none;stroke-width:1.84129;stroke-dasharray:none;stroke-opacity:1"
       x="82.269348"
       y="365.45416"
       id="text15"
       transform="scale(0.95137068,1.051115)"><tspan
         id="tspan15"
         style="font-style:normal;font-variant:normal;font-weight:bold;font-stretch:normal;font-size:152.876px;font-family:'DejaVu Sans';-inkscape-font-specification:'DejaVu Sans, Bold';font-variant-ligatures:normal;font-variant-caps:normal;font-variant-numeric:normal;font-variant-east-asian:normal;stroke-width:1.84129"
         x="82.269348"
         y="365.45416">x</tspan></text></g></g></svg>
